<mxfile host="app.diagrams.net" agent="Mozilla/5.0 (Macintosh; Intel Mac OS X 10_15_7) AppleWebKit/537.36 (KHTML, like Gecko) Chrome/131.0.0.0 Safari/537.36" version="25.0.3">
  <diagram name="Page-1" id="MRtzzXNwsHmBVyryb6eQ">
    <mxGraphModel dx="1476" dy="1000" grid="1" gridSize="10" guides="1" tooltips="1" connect="1" arrows="1" fold="1" page="1" pageScale="1" pageWidth="850" pageHeight="1100" math="0" shadow="0">
      <root>
        <mxCell id="0" />
        <mxCell id="1" parent="0" />
        <mxCell id="jgMRVaHnvhg0y0FyFOAp-1" value="&lt;font style=&quot;font-size: 20px;&quot;&gt;Platformization&lt;/font&gt;" style="rounded=1;whiteSpace=wrap;html=1;gradientColor=#FF3333;fontStyle=1" vertex="1" parent="1">
          <mxGeometry x="70" y="50" width="730" height="60" as="geometry" />
        </mxCell>
        <mxCell id="jgMRVaHnvhg0y0FyFOAp-2" value="Prisma Cloud" style="rounded=1;whiteSpace=wrap;html=1;fontSize=20;gradientColor=#99CCFF;fontStyle=1" vertex="1" parent="1">
          <mxGeometry x="70" y="114" width="230" height="70" as="geometry" />
        </mxCell>
        <mxCell id="jgMRVaHnvhg0y0FyFOAp-3" value="Cortex" style="rounded=1;whiteSpace=wrap;html=1;fontSize=20;gradientColor=#99FF99;fontStyle=1" vertex="1" parent="1">
          <mxGeometry x="320" y="114" width="230" height="70" as="geometry" />
        </mxCell>
        <mxCell id="jgMRVaHnvhg0y0FyFOAp-4" value="Strata" style="rounded=1;whiteSpace=wrap;html=1;fontSize=20;gradientColor=#FFFF66;fontStyle=1" vertex="1" parent="1">
          <mxGeometry x="570" y="114" width="230" height="70" as="geometry" />
        </mxCell>
        <mxCell id="jgMRVaHnvhg0y0FyFOAp-5" value="&amp;nbsp; &amp;nbsp;AI -&amp;nbsp;" style="rounded=1;whiteSpace=wrap;html=1;fontSize=15;align=left;" vertex="1" parent="1">
          <mxGeometry x="80" y="400" width="720" height="30" as="geometry" />
        </mxCell>
        <mxCell id="jgMRVaHnvhg0y0FyFOAp-6" value="&amp;nbsp; &amp;nbsp;Identity" style="rounded=1;whiteSpace=wrap;html=1;fontSize=15;align=left;" vertex="1" parent="1">
          <mxGeometry x="80" y="435" width="720" height="30" as="geometry" />
        </mxCell>
        <mxCell id="jgMRVaHnvhg0y0FyFOAp-7" value="&amp;nbsp; &amp;nbsp;Posture" style="rounded=1;whiteSpace=wrap;html=1;fontSize=15;align=left;" vertex="1" parent="1">
          <mxGeometry x="80" y="470" width="720" height="30" as="geometry" />
        </mxCell>
        <mxCell id="jgMRVaHnvhg0y0FyFOAp-8" value="&lt;b&gt;&amp;nbsp; &amp;nbsp;Observability&lt;/b&gt;&lt;div&gt;&lt;ul&gt;&lt;li&gt;AIOps&lt;/li&gt;&lt;li&gt;Adoption Advisor&lt;/li&gt;&lt;/ul&gt;&lt;/div&gt;&lt;div&gt;&lt;br&gt;&lt;/div&gt;" style="rounded=1;whiteSpace=wrap;html=1;fontSize=16;align=left;verticalAlign=top;" vertex="1" parent="1">
          <mxGeometry x="80" y="505" width="720" height="125" as="geometry" />
        </mxCell>
        <mxCell id="jgMRVaHnvhg0y0FyFOAp-9" value="Operational Excelence" style="rounded=1;whiteSpace=wrap;html=1;rotation=-180;flipV=1;flipH=1;textDirection=vertical-lr;fontSize=20;" vertex="1" parent="1">
          <mxGeometry x="810" y="50" width="30" height="490" as="geometry" />
        </mxCell>
        <mxCell id="jgMRVaHnvhg0y0FyFOAp-10" value="Automation" style="rounded=1;whiteSpace=wrap;html=1;rotation=-180;flipV=1;flipH=1;textDirection=vertical-lr;fontSize=20;" vertex="1" parent="1">
          <mxGeometry x="845" y="50" width="30" height="490" as="geometry" />
        </mxCell>
        <mxCell id="jgMRVaHnvhg0y0FyFOAp-11" value="Resiliency" style="rounded=1;whiteSpace=wrap;html=1;rotation=-180;flipV=1;flipH=1;textDirection=vertical-lr;fontSize=20;" vertex="1" parent="1">
          <mxGeometry x="881" y="50" width="30" height="490" as="geometry" />
        </mxCell>
        <mxCell id="jgMRVaHnvhg0y0FyFOAp-12" value="Cloud Architecture" style="rounded=1;whiteSpace=wrap;html=1;fontSize=20;" vertex="1" parent="1">
          <mxGeometry x="570" y="189" width="230" height="35" as="geometry" />
        </mxCell>
        <mxCell id="jgMRVaHnvhg0y0FyFOAp-13" value="Strata Cloud Manager" style="rounded=1;whiteSpace=wrap;html=1;fontSize=20;" vertex="1" parent="1">
          <mxGeometry x="570" y="230" width="230" height="30" as="geometry" />
        </mxCell>
        <mxCell id="jgMRVaHnvhg0y0FyFOAp-14" value="Code to Cloud to SOC - CDR" style="rounded=1;whiteSpace=wrap;html=1;fontSize=18;" vertex="1" parent="1">
          <mxGeometry x="70" y="189" width="480" height="35" as="geometry" />
        </mxCell>
      </root>
    </mxGraphModel>
  </diagram>
</mxfile>
